Coordinates
version=1
nRows=14
nColumns=40
inDegrees=yes

Units are S.I. units (second, meters, Newtons, ...)
If the header above contains a line with 'inDegrees', this indicates whether rotational values are in degrees (yes) or radians (no).

endheader
time	pelvis_tilt	pelvis_list	pelvis_rotation	pelvis_tx	pelvis_ty	pelvis_tz	hip_flexion_r	hip_adduction_r	hip_rotation_r	knee_angle_r	knee_angle_r_beta	ankle_angle_r	subtalar_angle_r	mtp_angle_r	hip_flexion_l	hip_adduction_l	hip_rotation_l	knee_angle_l	knee_angle_l_beta	ankle_angle_l	subtalar_angle_l	mtp_angle_l	lumbar_extension	lumbar_bending	lumbar_rotation	arm_flex_r	arm_add_r	arm_rot_r	elbow_flex_r	pro_sup_r	wrist_flex_r	wrist_dev_r	arm_flex_l	arm_add_l	arm_rot_l	elbow_flex_l	pro_sup_l	wrist_flex_l	wrist_dev_l
     11.72500000	     17.05737843	     -0.28421756	   -177.11995729	      0.30501200	      0.74289742	     -0.93726164	     44.55859009	    -40.10508333	    -18.75704073	     30.44374482	      0.53134358	     -9.88433836	      0.00000000	      0.00000000	     45.12899996	    -37.74595099	    -20.19098695	     29.71335294	      0.51859584	    -11.35770500	      0.00000000	      0.00000000	    -21.70807602	     -5.27743382	      2.49487083	     30.52453804	    -15.24245062	     53.10233685	     16.28575358	     85.08246781	      0.00000000	      0.00000000	     36.05570285	    -15.17738128	     63.97329236	     16.48235295	     74.98831136	      0.00000000	      0.00000000
     11.73000000	     17.30546873	     -0.27984607	   -177.10593075	      0.30623736	      0.74177825	     -0.93753187	     45.11865254	    -40.16442631	    -18.58750209	     30.71318640	      0.53604623	     -9.80918106	      0.00000000	      0.00000000	     45.61873884	    -37.81779549	    -20.19408477	     29.86878016	      0.52130856	    -11.43105772	      0.00000000	      0.00000000	    -21.72604208	     -5.29271705	      2.49802767	     30.67947611	    -15.24368092	     52.83166853	     16.33082926	     85.10614546	      0.00000000	      0.00000000	     36.22978964	    -15.10638591	     63.65000888	     16.43436503	     74.77389918	      0.00000000	      0.00000000
     11.73500000	     17.44873912	     -0.27043215	   -177.02916017	      0.30739833	      0.74085661	     -0.93771852	     45.48468505	    -40.27815657	    -18.57687802	     30.95655609	      0.54029383	     -9.78676366	      0.00000000	      0.00000000	     46.03589787	    -37.84845860	    -20.13801290	     30.01221711	      0.52381200	    -11.57473591	      0.00000000	      0.00000000	    -21.86800415	     -5.27287157	      2.46607044	     30.88972332	    -15.28311172	     52.85037798	     16.37631836	     84.95254935	      0.00000000	      0.00000000	     36.48742352	    -15.09192142	     63.60307042	     16.47092548	     75.02331567	      0.00000000	      0.00000000
     11.74000000	     17.62183616	     -0.06602128	   -176.78963737	      0.30855809	      0.73984461	     -0.93763605	     45.66542457	    -40.38464123	    -18.98773442	     31.24600417	      0.54534565	     -9.57752910	      0.00000000	      0.00000000	     46.72647249	    -37.87696965	    -19.61629253	     30.18295481	      0.52679194	    -11.46779852	      0.00000000	      0.00000000	    -21.96388052	     -4.99087555	      2.28613562	     31.14899256	    -14.90109480	     52.59074792	     15.68274621	     83.57312574	      0.00000000	      0.00000000	     36.61970397	    -14.85765285	     63.03986080	     16.12368966	     74.25517285	      0.00000000	      0.00000000
     11.74500000	     17.95609046	     -0.24362622	   -176.93693855	      0.30983644	      0.73860696	     -0.93818223	     46.55574937	    -40.43010154	    -18.34223640	     31.48027524	      0.54943445	     -9.62731592	      0.00000000	      0.00000000	     47.06379994	    -37.92693074	    -19.99144017	     30.28407098	      0.52855675	    -11.68877979	      0.00000000	      0.00000000	    -21.88916513	     -5.26615306	      2.38120156	     31.34820919	    -15.21620622	     52.99200796	     16.22893780	     84.98235018	      0.00000000	      0.00000000	     36.88727732	    -15.05632445	     63.44416993	     16.45242599	     74.58582595	      0.00000000	      0.00000000
     11.75000000	     18.17450911	     -0.22280746	   -176.86863590	      0.31102745	      0.73755403	     -0.93833043	     47.02075134	    -40.51553340	    -18.25208407	     31.73203298	      0.55382845	     -9.54366635	      0.00000000	      0.00000000	     47.56969125	    -37.94950049	    -19.89702490	     30.43874321	      0.53125629	    -11.75930857	      0.00000000	      0.00000000	    -21.94082159	     -5.23888201	      2.33822704	     31.55112498	    -15.14503053	     52.75235473	     16.09271310	     84.97468820	      0.00000000	      0.00000000	     37.10197415	    -15.02243831	     63.40608439	     16.44138330	     74.43028535	      0.00000000	      0.00000000
     11.75500000	     18.49512612	     -0.17701618	   -176.78713637	      0.31232953	      0.73620558	     -0.93843855	     47.62639724	    -40.60400647	    -18.13906369	     32.02805385	      0.55899499	     -9.51206000	      0.00000000	      0.00000000	     48.26843138	    -37.98788822	    -19.65583653	     30.66722127	      0.53524398	    -11.85329585	      0.00000000	      0.00000000	    -21.86390227	     -5.19707084	      2.29952688	     31.69488712	    -15.20795870	     52.66294406	     16.21493781	     85.08472768	      0.00000000	      0.00000000	     37.40014470	    -14.98010318	     63.75289334	     16.34398787	     74.73427961	      0.00000000	      0.00000000
     11.76000000	     18.65527819	     -0.18197073	   -176.76875418	      0.31336191	      0.73519939	     -0.93866294	     48.06962360	    -40.68104521	    -18.00324497	     32.28837306	      0.56353842	     -9.42682883	      0.00000000	      0.00000000	     48.65831408	    -38.04483511	    -19.68037063	     30.83426380	      0.53815943	    -11.88997546	      0.00000000	      0.00000000	    -21.96476611	     -5.20801468	      2.27977773	     31.92260442	    -15.15281660	     52.62474691	     16.11247657	     85.04554987	      0.00000000	      0.00000000	     37.64210118	    -14.97408294	     63.91654991	     16.33708618	     74.56099100	      0.00000000	      0.00000000
     11.76500000	     18.96390362	     -0.14768500	   -176.64999848	      0.31456153	      0.73384071	     -0.93868305	     48.64824672	    -40.82202075	    -17.90564526	     32.60733590	      0.56910537	     -9.35051503	      0.00000000	      0.00000000	     49.35400888	    -38.03129139	    -19.42412234	     31.06090127	      0.54211500	    -11.94454868	      0.00000000	      0.00000000	    -21.89013311	     -5.17212323	      2.22202637	     32.13100435	    -15.20947710	     52.99843125	     16.07768369	     84.98946385	      0.00000000	      0.00000000	     38.02206916	    -15.03361358	     64.93931868	     16.34484129	     75.19209366	      0.00000000	      0.00000000
     11.77000000	     18.92457432	     -0.15492060	   -176.60354154	      0.31538780	      0.73318616	     -0.93880184	     48.81374654	    -40.95697902	    -17.95747011	     32.86420162	      0.57358852	     -9.24707867	      0.00000000	      0.00000000	     49.52263957	    -38.08222220	    -19.46928923	     31.22621114	      0.54500020	    -11.96620957	      0.00000000	      0.00000000	    -22.22039882	     -5.15006530	      2.11178523	     32.41957234	    -14.97512217	     52.67558534	     15.74260987	     84.60541320	      0.00000000	      0.00000000	     38.12363507	    -14.97245709	     64.29264194	     16.33396872	     74.02917472	      0.00000000	      0.00000000
     11.77500000	     19.31152998	     -0.09009089	   -176.59358178	      0.31667866	      0.73166187	     -0.93890528	     49.52538033	    -40.94850189	    -17.67908770	     33.12866003	      0.57820419	     -9.18989798	      0.00000000	      0.00000000	     50.30046179	    -38.16469631	    -19.20015322	     31.49782231	      0.54974071	    -11.99803523	      0.00000000	      0.00000000	    -22.04158032	     -5.11215881	      2.22230586	     32.55649955	    -15.29591630	     53.16095137	     16.12205773	     85.02383339	      0.00000000	      0.00000000	     38.51751009	    -14.93061444	     65.40494606	     16.25736640	     74.38593395	      0.00000000	      0.00000000
     11.78000000	     19.25648807	     -0.09265004	   -176.52112635	      0.31750791	      0.73103013	     -0.93894968	     49.65875089	    -41.07609697	    -17.67237520	     33.36602347	      0.58234697	     -9.13551144	      0.00000000	      0.00000000	     50.46109201	    -38.18151814	    -19.15330748	     31.63407121	      0.55211870	    -12.02786207	      0.00000000	      0.00000000	    -22.38663879	     -5.07678543	      2.10241546	     32.88020073	    -15.17117790	     53.24190741	     15.90763496	     84.91646095	      0.00000000	      0.00000000	     38.70136765	    -14.93151837	     65.18217517	     16.30369399	     73.80507020	      0.00000000	      0.00000000
     11.78500000	     19.47956048	     -0.11569067	   -176.55791995	      0.31852561	      0.72978969	     -0.93906586	     50.26965925	    -41.12503202	    -17.34044313	     33.67052570	      0.58766153	     -9.06498932	      0.00000000	      0.00000000	     50.93039473	    -38.24969129	    -19.08282382	     31.88399049	      0.55648061	    -11.99883047	      0.00000000	      0.00000000	    -22.39376063	     -5.12662720	      2.15805591	     33.05386460	    -15.27734890	     53.40833508	     16.00413319	     84.92873848	      0.00000000	      0.00000000	     38.97144368	    -14.90996476	     65.63350672	     16.28690408	     73.60936827	      0.00000000	      0.00000000
     11.79000000	     19.53036804	     -0.15507432	   -176.56223851	      0.31934094	      0.72888665	     -0.93916743	     50.61895254	    -41.22418916	    -17.16341203	     33.93750552	      0.59232121	     -9.00659381	      0.00000000	      0.00000000	     51.19632818	    -38.30275503	    -19.06871484	     32.12485660	      0.56068452	    -12.00410869	      0.00000000	      0.00000000	    -22.59484436	     -5.16646030	      2.12514899	     33.30696041	    -15.20829567	     53.44202612	     15.86255026	     84.86989313	      0.00000000	      0.00000000	     39.18408981	    -14.92872800	     65.73890941	     16.34208643	     73.14863242	      0.00000000	      0.00000000
